<svg class="HINT: JISX0503=code39" xmlns="http://www.w3.org/2000/svg" width="98.759" height="13.5mm" preserveAspectRatio="none"><g stroke-width="0"><rect width=".983" height="13.5mm"/><rect x="3.439" width=".983" height="13.5mm"/><rect x="5.405" width="2.457" height="13.5mm"/><rect x="8.844" width="2.457" height="13.5mm"/><rect x="3.25mm" width=".983" height="13.5mm"/><rect x="3.77mm" width=".983" height="13.5mm"/><rect x="4.68mm" width=".983" height="13.5mm"/><rect x="5.59mm" width=".983" height="13.5mm"/><rect x="6.11mm" width=".983" height="13.5mm"/><rect x="7.02mm" width=".983" height="13.5mm"/><rect x="7.54mm" width=".983" height="13.5mm"/><rect x="8.06mm" width=".983" height="13.5mm"/><rect x="8.58mm" width="2.457" height="13.5mm"/><rect x="9.88mm" width=".983" height="13.5mm"/><rect x="10.4mm" width="2.457" height="13.5mm"/><rect x="42.746" width=".983" height="13.5mm"/><rect x="44.712" width=".983" height="13.5mm"/><rect x="46.677" width="2.457" height="13.5mm"/><rect x="51.591" width=".983" height="13.5mm"/><rect x="53.556" width="2.457" height="13.5mm"/><rect x="56.995" width="2.457" height="13.5mm"/><rect x="60.435" width="2.457" height="13.5mm"/><rect x="16.9mm" width=".983" height="13.5mm"/><rect x="65.839" width=".983" height="13.5mm"/><rect x="69.279" width=".983" height="13.5mm"/><rect x="71.244" width=".983" height="13.5mm"/><rect x="73.209" width="2.457" height="13.5mm"/><rect x="78.123" width=".983" height="13.5mm"/><rect x="80.088" width="2.457" height="13.5mm"/><rect x="22.1mm" width=".983" height="13.5mm"/><rect x="85.493" width=".983" height="13.5mm"/><rect x="88.932" width=".983" height="13.5mm"/><rect x="90.898" width="2.457" height="13.5mm"/><rect x="94.337" width="2.457" height="13.5mm"/><rect x="97.776" width=".983" height="13.5mm"/></g></svg>