<?xml version="1.0" encoding="utf-8"?>
<!DOCTYPE svg PUBLIC "-//W3C//DTD SVG 1.1//EN"
  "http://www.w3.org/Graphics/SVG/1.1/DTD/svg11.dtd">
<svg xmlns="http://www.w3.org/2000/svg"
     xmlns:xlink="http://www.w3.org/1999/xlink"
     width="26.13mm" height="13.5mm">
    <g stroke-width="0" fill="#000000">
         <rect x="0mm" y="0mm" width="0.26mm" height="13.5mm" />
         <rect x="0.91mm" y="0mm" width="0.26mm" height="13.5mm" />
         <rect x="1.43mm" y="0mm" width="0.65mm" height="13.5mm" />
         <rect x="2.34mm" y="0mm" width="0.65mm" height="13.5mm" />
         <rect x="3.25mm" y="0mm" width="0.26mm" height="13.5mm" />
         <rect x="3.77mm" y="0mm" width="0.26mm" height="13.5mm" />
         <rect x="4.68mm" y="0mm" width="0.26mm" height="13.5mm" />
         <rect x="5.59mm" y="0mm" width="0.26mm" height="13.5mm" />
         <rect x="6.11mm" y="0mm" width="0.26mm" height="13.5mm" />
         <rect x="7.02mm" y="0mm" width="0.26mm" height="13.5mm" />
         <rect x="7.54mm" y="0mm" width="0.26mm" height="13.5mm" />
         <rect x="8.06mm" y="0mm" width="0.26mm" height="13.5mm" />
         <rect x="8.58mm" y="0mm" width="0.65mm" height="13.5mm" />
         <rect x="9.88mm" y="0mm" width="0.26mm" height="13.5mm" />
         <rect x="10.4mm" y="0mm" width="0.65mm" height="13.5mm" />
         <rect x="11.31mm" y="0mm" width="0.26mm" height="13.5mm" />
         <rect x="11.83mm" y="0mm" width="0.26mm" height="13.5mm" />
         <rect x="12.35mm" y="0mm" width="0.65mm" height="13.5mm" />
         <rect x="13.65mm" y="0mm" width="0.26mm" height="13.5mm" />
         <rect x="14.17mm" y="0mm" width="0.65mm" height="13.5mm" />
         <rect x="15.08mm" y="0mm" width="0.65mm" height="13.5mm" />
         <rect x="15.99mm" y="0mm" width="0.65mm" height="13.5mm" />
         <rect x="16.9mm" y="0mm" width="0.26mm" height="13.5mm" />
         <rect x="17.42mm" y="0mm" width="0.26mm" height="13.5mm" />
         <rect x="18.33mm" y="0mm" width="0.26mm" height="13.5mm" />
         <rect x="18.85mm" y="0mm" width="0.26mm" height="13.5mm" />
         <rect x="19.37mm" y="0mm" width="0.65mm" height="13.5mm" />
         <rect x="20.67mm" y="0mm" width="0.26mm" height="13.5mm" />
         <rect x="21.19mm" y="0mm" width="0.65mm" height="13.5mm" />
         <rect x="22.1mm" y="0mm" width="0.26mm" height="13.5mm" />
         <rect x="22.62mm" y="0mm" width="0.26mm" height="13.5mm" />
         <rect x="23.53mm" y="0mm" width="0.26mm" height="13.5mm" />
         <rect x="24.05mm" y="0mm" width="0.65mm" height="13.5mm" />
         <rect x="24.96mm" y="0mm" width="0.65mm" height="13.5mm" />
         <rect x="25.87mm" y="0mm" width="0.26mm" height="13.5mm" />
    </g>
</svg>
