<?xml version="1.0" encoding="utf-8"?>
<!DOCTYPE svg PUBLIC "-//W3C//DTD SVG 1.1//EN" "http://www.w3.org/Graphics/SVG/1.1/DTD/svg11.dtd">
<svg xmlns="http://www.w3.org/2000/svg"
     xmlns:xlink="http://www.w3.org/1999/xlink"
     width="290mm" height="50mm"
     preserveAspectRatio="none">
  <g stroke-width="0" fill="#ffffff">

    <rect x="10mm" y="0mm" width="10mm" height="10mm" />
    <rect x="20mm" y="0mm" width="10mm" height="10mm" />
    <rect x="40mm" y="0mm" width="10mm" height="10mm" />
    <rect x="60mm" y="0mm" width="10mm" height="10mm" />
    <rect x="70mm" y="0mm" width="10mm" height="10mm" />
    <rect x="90mm" y="0mm" width="10mm" height="10mm" />
    <rect x="100mm" y="0mm" width="10mm" height="10mm" />
    <rect x="110mm" y="0mm" width="10mm" height="10mm" />
    <rect x="120mm" y="0mm" width="10mm" height="10mm" />
    <rect x="130mm" y="0mm" width="10mm" height="10mm" />
    <rect x="150mm" y="0mm" width="10mm" height="10mm" />
    <rect x="180mm" y="0mm" width="10mm" height="10mm" />
    <rect x="190mm" y="0mm" width="10mm" height="10mm" />
    <rect x="210mm" y="0mm" width="10mm" height="10mm" />
    <rect x="220mm" y="0mm" width="10mm" height="10mm" />
    <rect x="230mm" y="0mm" width="10mm" height="10mm" />
    <rect x="260mm" y="0mm" width="10mm" height="10mm" />

    <rect x="10mm" y="10mm" width="10mm" height="10mm" />
    <rect x="20mm" y="10mm" width="10mm" height="10mm" />
    <rect x="40mm" y="10mm" width="10mm" height="10mm" />
    <rect x="70mm" y="10mm" width="10mm" height="10mm" />
    <rect x="90mm" y="10mm" width="10mm" height="10mm" />
    <rect x="140mm" y="10mm" width="10mm" height="10mm" />
    <rect x="150mm" y="10mm" width="10mm" height="10mm" />
    <rect x="170mm" y="10mm" width="10mm" height="10mm" />
    <rect x="190mm" y="10mm" width="10mm" height="10mm" />
    <rect x="220mm" y="10mm" width="10mm" height="10mm" />
    <rect x="250mm" y="10mm" width="10mm" height="10mm" />
    <rect x="270mm" y="10mm" width="10mm" height="10mm" />
    <rect x="280mm" y="10mm" width="10mm" height="10mm" />

    <rect x="10mm" y="20mm" width="10mm" height="10mm" />
    <rect x="20mm" y="20mm" width="10mm" height="10mm" />
    <rect x="40mm" y="20mm" width="10mm" height="10mm" />
    <rect x="90mm" y="20mm" width="10mm" height="10mm" />
    <rect x="100mm" y="20mm" width="10mm" height="10mm" />
    <rect x="130mm" y="20mm" width="10mm" height="10mm" />
    <rect x="150mm" y="20mm" width="10mm" height="10mm" />
    <rect x="180mm" y="20mm" width="10mm" height="10mm" />
    <rect x="190mm" y="20mm" width="10mm" height="10mm" />
    <rect x="210mm" y="20mm" width="10mm" height="10mm" />
    <rect x="230mm" y="20mm" width="10mm" height="10mm" />
    <rect x="250mm" y="20mm" width="10mm" height="10mm" />

    <rect x="10mm" y="30mm" width="10mm" height="10mm" />
    <rect x="20mm" y="30mm" width="10mm" height="10mm" />
    <rect x="40mm" y="30mm" width="10mm" height="10mm" />
    <rect x="60mm" y="30mm" width="10mm" height="10mm" />
    <rect x="90mm" y="30mm" width="10mm" height="10mm" />
    <rect x="120mm" y="30mm" width="10mm" height="10mm" />
    <rect x="130mm" y="30mm" width="10mm" height="10mm" />
    <rect x="150mm" y="30mm" width="10mm" height="10mm" />
    <rect x="170mm" y="30mm" width="10mm" height="10mm" />
    <rect x="180mm" y="30mm" width="10mm" height="10mm" />
    <rect x="210mm" y="30mm" width="10mm" height="10mm" />
    <rect x="230mm" y="30mm" width="10mm" height="10mm" />
    <rect x="250mm" y="30mm" width="10mm" height="10mm" />
    <rect x="270mm" y="30mm" width="10mm" height="10mm" />
    <rect x="280mm" y="30mm" width="10mm" height="10mm" />

    <rect x="0mm" y="40mm" width="10mm" height="10mm" />
    <rect x="30mm" y="40mm" width="10mm" height="10mm" />
    <rect x="60mm" y="40mm" width="10mm" height="10mm" />
    <rect x="70mm" y="40mm" width="10mm" height="10mm" />
    <rect x="130mm" y="40mm" width="10mm" height="10mm" />
    <rect x="170mm" y="40mm" width="10mm" height="10mm" />
    <rect x="200mm" y="40mm" width="10mm" height="10mm" />
    <rect x="210mm" y="40mm" width="10mm" height="10mm" />
    <rect x="220mm" y="40mm" width="10mm" height="10mm" />
    <rect x="230mm" y="40mm" width="10mm" height="10mm" />
    <rect x="260mm" y="40mm" width="10mm" height="10mm" />
  </g>
</svg>
